HIERARCHY
ROOT Hips
{
  OFFSET 279.157 85.6768 304.565
  CHANNELS 6 Xposition Yposition Zposition Zrotation Xrotation Yrotation
  JOINT LeftUpLeg
  {
    OFFSET 8.64259 1.95398 -2.38835
    CHANNELS 3 Zrotation Xrotation Yrotation
    JOINT LeftLeg
    {
      OFFSET 43.7702 0 0
      CHANNELS 3 Zrotation Xrotation Yrotation
      JOINT LeftFoot
      {
        OFFSET 40.6238 0 0
        CHANNELS 3 Zrotation Xrotation Yrotation
        JOINT LeftToeBase
        {
          OFFSET 12.7242 0 0
          CHANNELS 3 Zrotation Xrotation Yrotation
          End Site
          {
            OFFSET 0 0 0
          }
        }
      }
    }
  }
  JOINT RightUpLeg
  {
    OFFSET -8.2249 1.95398 -2.59336
    CHANNELS 3 Zrotation Xrotation Yrotation
    JOINT RightLeg
    {
      OFFSET 43.5653 0 0
      CHANNELS 3 Zrotation Xrotation Yrotation
      JOINT RightFoot
      {
        OFFSET 40.6238 0 0
        CHANNELS 3 Zrotation Xrotation Yrotation
        JOINT RightToeBase
        {
          OFFSET 12.7242 0 0
          CHANNELS 3 Zrotation Xrotation Yrotation
          End Site
          {
            OFFSET 0 0 0
          }
        }
      }
    }
  }
  JOINT Spine
  {
    OFFSET 0.165834 0.87714 6.61349
    CHANNELS 3 Zrotation Xrotation Yrotation
    JOINT Spine1
    {
      OFFSET 7.38963 1.71661e-005 0
      CHANNELS 3 Zrotation Xrotation Yrotation
      JOINT Spine2
      {
        OFFSET 11.9445 1.14441e-005 0
        CHANNELS 3 Zrotation Xrotation Yrotation
        JOINT Spine3
        {
          OFFSET 14.7254 4.19617e-005 0
          CHANNELS 3 Zrotation Xrotation Yrotation
          JOINT Spine4
          {
            OFFSET 10.9679 0 0
            CHANNELS 3 Zrotation Xrotation Yrotation
            JOINT RightShoulder
            {
              OFFSET 2.46616 -1.6653 3.69651
              CHANNELS 3 Zrotation Xrotation Yrotation
              JOINT RightArm
              {
                OFFSET 13.0012 0 0
                CHANNELS 3 Zrotation Xrotation Yrotation
                JOINT RightForeArm
                {
                  OFFSET 28.7848 1.52588e-005 0
                  CHANNELS 3 Zrotation Xrotation Yrotation
                  JOINT RightHand
                  {
                    OFFSET 26.5688 1.52588e-005 0
                    CHANNELS 3 Zrotation Xrotation Yrotation
                    End Site
                    {
                      OFFSET 0 0 0
                    }
                  }
                }
              }
            }
            JOINT LeftShoulder
            {
              OFFSET 2.38034 -1.29275 -3.7523
              CHANNELS 3 Zrotation Xrotation Yrotation
              JOINT LeftArm
              {
                OFFSET 16.3182 6.10351e-005 0
                CHANNELS 3 Zrotation Xrotation Yrotation
                JOINT LeftForeArm
                {
                  OFFSET 27.0901 0 0
                  CHANNELS 3 Zrotation Xrotation Yrotation
                  JOINT LeftHand
                  {
                    OFFSET 24.5451 1.52588e-005 0
                    CHANNELS 3 Zrotation Xrotation Yrotation
                    End Site
                    {
                      OFFSET 0 0 0
                    }
                  }
                }
              }
            }
            JOINT Neck
            {
              OFFSET 5.0226 -0.0266342 0
              CHANNELS 3 Zrotation Xrotation Yrotation
              JOINT Head
              {
                OFFSET 6.69364 2.86102e-005 0
                CHANNELS 3 Zrotation Xrotation Yrotation
                End Site
                {
                  OFFSET 0 0 0
                }
              }
            }
          }
        }
      }
    }
  }
}
MOTION
Frames:	15
Frame Time:	0.0416667
32.5513 102.147 16.1301 -161.07 -80.9508 -163.413 -175.441 -5.7809 87.8451 -9.32351 -2.22142 0.855555 66.7959 3.34215 -2.32852 18.7724 -8.7948 9.30246 171.872 -3.8439 85.8852 -12.2341 -4.01651 -0.211032 66.3284 -2.72679 2.30007 24.8057 0.570746 4.79372 0.373061 7.38735 -89.8819 12.0988 0.797457 0.147813 0.428105 0.803192 0.112562 -22.1086 0.716159 0.38066 -2.09599 0.716166 0.380659 86.8577 -28.8417 -113.477 22.4671 7.50238 -21.4176 1.95439 -1.67694 -50.7891 -4.67886 1.00945 -29.4605 -90.3774 -50.6351 78.3039 -4.90811 12.4716 -31.9338 -29.9841 -29.3185 -60.8932 -11.6037 0.353208 -9.86205 0.590937 -1.64237 -3.55498 -8.93406 -1.20598 1.52441 
32.3362 102.135 16.2615 -164.315 -81.579 -165.924 -174.775 -4.56167 88.981 -10.8278 -1.25505 0.625081 67.3561 3.27321 -2.58924 17.3095 -9.135 7.65728 172.508 -4.24936 86.958 -10.874 -3.79466 -0.137288 65.1031 -2.39501 1.65381 25.4561 0.34778 4.97242 0.295538 7.32486 -90.0068 12.2244 0.584227 -0.0789418 0.55358 0.580177 -0.104584 -21.9826 0.580928 0.100291 -1.96996 0.580937 0.100301 87.3381 -27.838 -113.009 23.2313 7.04322 -21.6692 2.06398 -1.36012 -50.7369 -4.17683 0.921255 -29.4344 -90.3218 -51.4138 78.5542 -5.70628 11.7889 -32.5062 -29.0759 -30.0776 -59.12 -13.7978 0.583402 -11.0685 0.342386 -1.49655 -3.1013 -8.74383 -1.16022 2.00713 
32.3401 102.176 16.3702 -164.483 -81.4258 -165.943 -174.639 -4.92896 89.1749 -10.5515 -0.779244 0.586755 67.2511 3.27337 -2.5418 17.6954 -9.34216 8.84379 172.459 -4.48565 87.0783 -11.0505 -3.75504 -0.0499434 65.3564 -2.55267 1.28824 24.7927 0.491633 5.29529 0.300815 7.34448 -90.0232 12.1849 0.586987 -0.111651 0.51408 0.581504 -0.137387 -22.0221 0.593399 0.0699236 -2.00948 0.593405 0.0699313 87.2417 -27.9575 -113.144 23.1528 7.18782 -21.5778 1.81176 -1.67764 -50.7215 -4.09297 0.879406 -29.5939 -90.3083 -51.3737 78.5653 -5.52053 11.2938 -32.6039 -27.3976 -29.4421 -58.221 -13.6539 0.448887 -9.77399 0.417585 -1.5109 -3.07539 -8.95985 -1.15981 1.67824 
32.3496 102.175 16.4469 -164.875 -81.4617 -166.322 -174.705 -4.96357 89.1173 -10.5516 -0.636206 0.655819 67.1952 3.28535 -2.34187 18.0117 -9.16873 8.94353 172.466 -4.51702 87.0822 -11.0459 -3.68554 -0.0541022 65.4927 -2.66091 1.06432 24.4373 0.484636 5.96648 0.299093 7.3464 -90.0408 12.19 0.575196 -0.145476 0.519159 0.568235 -0.170659 -22.017 0.592321 0.034126 -2.00438 0.592319 0.0341186 87.3307 -27.6686 -113.106 23.4209 7.25656 -21.5522 2.04501 -1.373 -50.526 -4.56518 1.00084 -29.3418 -90.3673 -51.6508 78.5382 -5.25517 11.4541 -32.6901 -27.6724 -29.6526 -58.3201 -12.8512 0.371347 -9.34877 0.351598 -1.4709 -2.62083 -8.82541 -1.16354 1.3178 
32.34 102.155 16.4999 -164.918 -81.559 -166.271 -174.801 -4.77446 89.1032 -10.814 -0.784729 0.802503 67.4532 3.34818 -2.34732 17.7296 -9.38262 9.00583 172.601 -4.78948 87.2112 -10.318 -3.52624 -0.0977729 65.1718 -2.54843 1.62379 24.9746 0.522083 4.78199 0.327279 7.34287 -90.0498 12.1887 0.626971 -0.169222 0.517867 0.618915 -0.196657 -22.0185 0.648838 0.0270374 -2.00587 0.648842 0.0270401 87.4815 -27.9329 -112.675 23.1677 7.19822 -21.6394 2.02265 -1.69625 -50.6342 -4.27166 0.932291 -29.7439 -90.4702 -51.496 78.3537 -4.89702 11.7728 -32.9007 -28.1302 -29.8367 -58.5986 -11.9402 0.286671 -8.87461 0.849403 -1.6452 -2.78841 -9.45161 -1.3013 1.23138 
32.3358 102.165 16.5697 -164.972 -81.5989 -166.338 -174.669 -4.73788 89.2075 -10.8698 -0.889693 0.666608 67.4693 3.30738 -2.60185 17.7411 -9.28127 8.76616 172.606 -4.63236 87.2377 -10.7575 -3.42233 -0.109137 65.5292 -2.68744 1.35907 24.411 0.61678 5.21558 0.318813 7.33386 -90.0434 12.2067 0.613198 -0.154976 0.535893 0.605778 -0.18182 -22.0004 0.631418 0.0364793 -1.98779 0.631422 0.0364849 87.3573 -28.0041 -112.89 23.0775 7.26939 -21.5285 2.25321 -1.23499 -50.9051 -3.89917 0.878144 -29.3961 -90.4014 -51.6152 78.4802 -4.79471 11.705 -32.919 -28.2686 -29.8943 -58.6717 -12.1129 0.310923 -9.08038 0.635144 -1.64705 -2.92551 -9.32608 -1.30366 1.48261 
32.3384 102.158 16.6656 -165.419 -81.6122 -166.633 -174.503 -4.75608 89.4377 -10.9278 -0.4764 0.588576 67.5377 3.37724 -2.40676 17.8677 -9.25419 8.9139 172.643 -4.88287 87.3459 -10.3438 -3.44072 -0.0644575 65.1229 -2.53808 1.59332 25.1361 0.463348 4.84177 0.322845 7.32544 -90.0559 12.2236 0.615262 -0.180274 0.552782 0.606725 -0.207189 -21.9835 0.640996 0.0129783 -1.9709 0.640992 0.0129748 87.3467 -27.8551 -112.984 23.3555 7.44009 -21.4631 2.02725 -1.68826 -50.9472 -3.79632 0.829348 -29.6683 -90.4233 -51.5277 78.4294 -5.07582 11.3814 -32.9962 -27.6147 -29.6181 -58.049 -12.7285 0.372308 -9.47643 0.494362 -1.71519 -3.19695 -9.29783 -1.35765 1.82931 
32.3483 102.16 16.722 -166.185 -81.7389 -167.452 -174.608 -4.7002 89.3268 -10.9079 -0.478105 0.655121 67.5035 3.32569 -2.53055 18.0667 -9.2793 9.3237 172.567 -4.75739 87.2803 -10.5171 -3.45364 -0.0134691 65.3324 -2.68032 1.24501 24.6151 0.573665 5.12004 0.310239 7.32014 -90.0406 12.2341 0.59742 -0.147929 0.563285 0.590337 -0.174086 -21.973 0.614258 0.038476 -1.96032 0.61425 0.0384615 87.2851 -27.9076 -113.081 23.2923 7.5346 -21.3927 1.88207 -2.02363 -51.0987 -4.22751 0.892696 -29.5137 -90.4195 -51.4426 78.4166 -5.69311 10.4873 -33.051 -25.6676 -28.6937 -56.6936 -14.8763 0.580858 -10.4796 0.48567 -1.7039 -3.17634 -9.06379 -1.33044 1.58288 
32.3588 102.157 16.7605 -165.986 -81.7435 -167.256 -174.581 -4.74601 89.3322 -10.8623 -0.429489 0.62335 67.5034 3.37321 -2.35275 17.9732 -9.19242 8.93796 172.549 -4.77799 87.2848 -10.5384 -3.30561 0.0060974 65.6234 -2.85133 1.12029 24.327 0.583011 5.56931 0.319562 7.3197 -90.0528 12.2351 0.610175 -0.173641 0.564252 0.601943 -0.200326 -21.9721 0.634151 0.0177834 -1.95941 0.634147 0.017771 87.3182 -27.8279 -113.054 23.2107 7.52532 -21.2842 1.62922 -2.18473 -51.2823 -3.6361 0.748201 -29.6499 -90.5344 -51.5402 78.2691 -5.07311 10.9873 -32.7816 -27.0385 -29.1501 -57.7656 -13.613 0.469753 -10.0587 0.567017 -1.68732 -2.81955 -9.08588 -1.34397 1.2666 
32.3904 102.144 16.7892 -166.127 -81.7238 -167.346 -174.578 -4.6794 89.3618 -11.0808 -0.566244 0.651791 67.736 3.40515 -2.53509 17.6839 -9.39247 8.95255 172.58 -4.91733 87.2655 -10.1888 -3.24029 -0.00709965 65.0655 -2.52252 1.67799 25.3407 0.377803 5.00139 0.320535 7.32986 -90.0385 12.2148 0.618931 -0.145903 0.543948 0.611919 -0.173007 -21.9924 0.634163 0.0468594 -1.97974 0.634175 0.0468713 87.2449 -27.9811 -113.126 23.1475 7.50937 -21.3491 1.82604 -2.01948 -51.0998 -3.87471 0.814373 -29.5358 -90.3437 -51.2342 78.4833 -5.05949 11.5193 -32.7641 -28.2147 -29.6232 -58.5513 -14.655 0.667268 -11.3861 0.747895 -1.60707 -3.02703 -9.23429 -1.24338 1.4632 
32.4193 102.169 16.8122 -165.417 -81.8298 -166.622 -174.727 -4.78864 89.252 -10.6049 -0.583415 0.778832 67.4066 3.35187 -2.33199 17.7629 -9.28115 8.80347 172.536 -4.68872 87.2922 -10.5526 -3.60833 0.0283834 65.216 -2.61513 1.19853 25.1886 0.406676 5.10284 0.325528 7.32017 -90.0372 12.2341 0.629426 -0.144588 0.563325 0.622458 -0.172166 -21.9731 0.643776 0.051266 -1.96041 0.643781 0.0512638 87.1573 -27.9345 -113.325 23.2959 7.61165 -21.3203 1.60198 -1.97727 -51.1255 -3.89805 0.801679 -29.1956 -90.2278 -50.9688 78.5972 -5.50384 11.0304 -32.7551 -26.7331 -29.1779 -57.757 -13.7627 0.430904 -9.61051 0.827915 -1.6351 -3.33662 -9.30074 -1.25417 1.93002 
32.4318 102.154 16.836 -164.888 -82.0213 -166.092 -174.817 -4.51169 89.1661 -10.8162 -0.77613 0.837768 67.6136 3.40715 -2.36776 17.6356 -9.39369 8.87283 172.608 -4.47399 87.3386 -10.576 -3.35198 0.00126858 65.4143 -2.73043 1.13365 24.6718 0.456336 5.72305 0.336703 7.29153 -90.0487 12.2915 0.646111 -0.169905 0.62067 0.638006 -0.19818 -21.9158 0.667301 0.0321435 -1.90312 0.667295 0.0321382 87.3319 -27.7961 -113.042 23.4445 7.47095 -21.4938 1.42436 -2.05456 -50.9063 -4.08362 0.82838 -29.2378 -90.3892 -51.1358 78.3949 -5.45071 11.1377 -32.6883 -27.4408 -29.4631 -58.1737 -12.8469 0.353755 -9.2048 0.730705 -1.68943 -3.18116 -9.37289 -1.33216 1.88402 
32.4742 102.16 16.8757 -165.268 -82.1013 -166.528 -174.796 -4.54133 89.142 -10.6362 -0.638801 0.763028 67.5244 3.44121 -2.30156 17.8604 -9.24076 8.86764 172.619 -4.51074 87.2954 -10.4027 -3.23518 -0.0380495 65.3093 -2.66114 1.16235 24.9475 0.374561 5.7365 0.31881 7.28324 -90.0562 12.3081 0.60694 -0.180734 0.63723 0.598396 -0.207274 -21.899 0.633192 0.0100403 -1.88641 0.633194 0.0100392 87.3243 -27.644 -113.132 23.3657 7.4244 -21.4245 1.37203 -1.94012 -51.028 -3.87202 0.786549 -29.2004 -90.553 -51.5525 78.2443 -5.01807 11.1309 -32.472 -27.8363 -29.5868 -58.5587 -12.5254 0.321859 -9.00957 0.607322 -1.55296 -2.67219 -9.3536 -1.24668 1.4607 
32.5225 102.135 16.9065 -165.941 -82.2275 -167.254 -174.951 -4.42466 88.9988 -10.6886 -0.882405 0.871825 67.536 3.33119 -2.66636 18.0408 -9.19158 9.05297 172.561 -4.28088 87.2118 -10.691 -3.19973 -0.00190841 65.4559 -2.6898 1.1705 24.784 0.435885 5.65197 0.291278 7.28169 -90.0438 12.311 0.558145 -0.150483 0.64016 0.550975 -0.174905 -21.896 0.577559 0.0242266 -1.88331 0.57756 0.0242209 87.0336 -27.8453 -113.617 22.7003 7.58975 -21.1425 1.60372 -1.67555 -51.5091 -4.23585 0.877057 -28.737 -90.3275 -51.2026 78.4998 -4.85658 11.7522 -32.3329 -29.1184 -29.9466 -59.4019 -12.8567 0.439249 -10.0009 0.808093 -1.4987 -2.54295 -9.26309 -1.19177 1.24619 
32.5222 102.145 16.9459 -165.86 -82.2616 -167.106 -174.855 -4.44298 89.096 -10.6237 -0.57299 0.796014 67.5439 3.44471 -2.30263 17.6984 -9.41372 9.03147 172.573 -4.30416 87.2647 -10.6564 -3.23484 0.013401 65.4772 -2.73418 1.15945 24.8032 0.42742 5.66937 0.30755 7.29176 -90.0483 12.2909 0.58836 -0.162684 0.620104 0.580634 -0.18843 -21.9161 0.610047 0.0216685 -1.90348 0.610053 0.021673 87.367 -27.7932 -112.973 22.8933 7.93521 -21.445 0.576812 -3.21584 -52.2757 -3.9046 0.681984 -28.8237 -90.2988 -50.5765 78.408 -5.55332 11.6025 -32.1996 -29.6075 -30.3653 -59.5646 -16.0251 0.720443 -11.2221 1.01924 -1.62517 -2.91644 -9.23851 -1.27211 1.4857 
